PathFileType	4	(x/y/z)	S02_P20_T45
DataRate	CameraRate	NumFrames	NumMarkers	Units	OrigDataRate	OrigDataStartFrame	OrigNumFrames
240	240	7	51	mm	240	304	347
Frame#	Time	Sternum			R.Acromium			L.Acromium			Top.Head			R.ASIS			L.ASIS			R.PSIS			L.PSIS			R.Great.Tro			L.Great.Tro			R.Iliac.Crest			L.Iliac.Crest			V.Sacral			R.Thigh.Upper.Post			R.Thigh.Lower.Ant			R.Thigh.Lower.Post			R.Thigh.Upper.Ant			R.Knee.Lat			R.Knee.Med			R.Shank.Upper.Post			R.Shank.Lower.Ant			R.Shank.Lower.Post			R.Shank.Upper.Ant			R.Ankle.Lat			R.Ankle.Med			R.Heel.Upper			R.Heel.Med			R.Heel.Lat			R.Toe.Lat			R.Toe.Med			R.Toe.Tip			L.Thigh.Upper.Post			L.Thigh.Lower.Ant			L.Thigh.Lower.Post			L.Thigh.Upper.Ant			L.Knee.Lat			L.Knee.Med			L.Shank.Upper.Post			L.Shank.Lower.Ant			L.Shank.Lower.Post			L.Shank.Upper.Ant			L.Ankle.Lat			L.Ankle.Med			L.Heel.Upper			L.Heel.Med			L.Heel.Lat			L.Toe.Lat			L.Toe.Med			L.Toe.Tip			Cervical.Spine			Back			
		X1	Y1	Z1	X2	Y2	Z2	X3	Y3	Z3	X4	Y4	Z4	X5	Y5	Z5	X6	Y6	Z6	X7	Y7	Z7	X8	Y8	Z8	X9	Y9	Z9	X10	Y10	Z10	X11	Y11	Z11	X12	Y12	Z12	X13	Y13	Z13	X14	Y14	Z14	X15	Y15	Z15	X16	Y16	Z16	X17	Y17	Z17	X18	Y18	Z18	X19	Y19	Z19	X20	Y20	Z20	X21	Y21	Z21	X22	Y22	Z22	X23	Y23	Z23	X24	Y24	Z24	X25	Y25	Z25	X26	Y26	Z26	X27	Y27	Z27	X28	Y28	Z28	X29	Y29	Z29	X30	Y30	Z30	X31	Y31	Z31	X32	Y32	Z32	X33	Y33	Z33	X34	Y34	Z34	X35	Y35	Z35	X36	Y36	Z36	X37	Y37	Z37	X38	Y38	Z38	X39	Y39	Z39	X40	Y40	Z40	X41	Y41	Z41	X42	Y42	Z42	X43	Y43	Z43	X44	Y44	Z44	X45	Y45	Z45	X46	Y46	Z46	X47	Y47	Z47	X48	Y48	Z48	X49	Y49	Z49	X50	Y50	Z50	X51	Y51	Z51	

304	1.2625	432.95	1096.1	290.18	329.18	1340.3	421.08	351.05	1334.9	128.75	428.33	1614	277.06	385.39	938.14	384.45	398.03	920.3	175.24	177.58	973.67	327.69	172.67	978.89	254.5	322.05	826.93	477.71	262.76	840.58	88.152	281.97	978.56	440.72	276.85	975.39	111.14	149.73	928.17	285.22	422.77	639.25	467.9	507.89	594.2	434.02	448.3	554.42	446.73	478.15	677.18	451.74	497.29	494.71	433.18	497.85	482.83	291.69	443.46	284.19	417.3	525.78	212.02	404.51	458.51	212.79	408.61	515.98	279.8	420.27	486.12	116.8	398.86	501.92	137.14	316.15	432.08	99.555	336.58	450.19	70.255	308.89	433.94	66.694	370.6	589.23	68.157	427.84	630.82	70.47	325.95	669.96	99.502	386.37	203.17	617.47	122.44	267.77	528.3	128.52	190.75	530.18	146.61	273.47	621.07	106.21	236.55	450.85	140.05	233.55	451.23	279.08	120.77	298.61	145.27	172.71	200.38	161.03	105.23	227.53	162.47	181.52	274.84	144.72	108.47	107.7	175.82	121.53	101.05	257.52	46.639	74.85	209.49	54.666	47.609	242.25	50.85	47.682	180.69	215.97	35.509	147.91	239.26	44.603	258	299.48	57.277	210.04	268.93	1403.3	269.01	178.96	1157.1	269.32
305	1.2667	438.87	1095.1	290.41	334.99	1339.4	421.35	357.1	1333.9	129.14	434.2	1613.1	277.48	391.81	937.29	384.6	403.7	919.22	175.21	183.62	972.6	328.37	178.49	977.8	255.21	328.89	826.29	478.04	267.73	840.13	88.391	288.28	977.69	441.01	282.25	974.33	111.52	155.67	927.04	286	429.51	638.38	467.84	514.12	593.21	432.94	454.81	553.47	446.76	484.52	676.28	450.62	503.78	493.89	432.7	503.01	481.38	290.91	454.65	282.11	417.53	538.87	211.99	404.65	471.51	211.03	408.81	527.39	279.59	420.36	501.74	115.46	399.15	516.68	135.99	316.39	447.94	96.392	337.09	466.83	67.575	309.43	450.86	63.68	371.16	606.26	69.687	427.92	647.45	73.034	325.91	685.98	103.29	386.17	206.91	617.58	122.78	270.87	527.93	128.69	193.9	530.38	146.99	277.22	620.67	106.41	239.04	450.62	140.19	236.1	451.04	279.26	122.25	299.04	145.56	173.65	200.51	161.15	106.34	228.1	162.7	182.91	274.92	144.86	108.81	108.13	176.02	121.92	101.37	257.67	46.845	75.354	209.65	54.797	48.082	242.41	50.94	48.167	180.85	216	35.474	147.93	239.41	44.573	257.99	299.66	57.033	209.99	274.8	1402.5	269.24	184.85	1156.2	269.4
306	1.2708	444.8	1094.1	290.66	340.8	1338.4	421.64	363.14	1332.9	129.55	440.07	1612.2	277.93	398.25	936.37	384.76	409.4	918.08	175.18	189.71	971.48	329.07	184.34	976.67	255.94	335.77	825.54	478.35	272.72	839.66	88.652	294.63	976.76	441.33	287.66	973.22	111.9	161.64	925.87	286.78	436.3	637.42	467.83	520.34	592.12	431.85	461.33	552.42	446.85	490.91	675.27	449.48	510.24	492.95	432.27	508.16	479.8	290.14	465.56	280.11	417.73	551.56	211.97	404.75	484.15	209.38	408.97	538.46	279.36	420.44	516.91	114.22	399.39	530.97	134.94	316.59	463.36	93.4	337.57	482.96	65.081	309.92	467.31	60.852	371.68	622.74	71.263	427.89	663.48	75.645	325.74	701.41	107.06	385.84	210.79	617.62	123.1	274.11	527.53	128.87	197.19	530.53	147.35	281.09	620.22	106.6	241.69	450.35	140.35	238.77	450.83	279.45	123.84	299.48	145.83	174.66	200.63	161.26	107.53	228.68	162.93	184.4	274.98	144.99	109.17	108.59	176.21	122.33	101.73	257.8	47.061	75.9	209.8	54.929	48.603	242.56	51.034	48.684	180.99	216.04	35.433	147.95	239.56	44.543	257.97	299.84	56.783	209.94	280.65	1401.5	269.5	190.75	1155.3	269.5
307	1.275	450.76	1093	290.92	346.63	1337.4	421.96	369.17	1331.9	129.98	445.93	1611.2	278.41	404.74	935.4	384.93	415.14	916.88	175.14	195.83	970.31	329.79	190.23	975.51	256.68	342.68	824.68	478.65	277.74	839.16	88.933	301.02	975.78	441.68	293.08	972.05	112.29	167.64	924.66	287.57	443.13	636.39	467.85	526.58	590.92	430.77	467.87	551.29	446.98	497.32	674.18	448.33	516.66	491.91	431.87	513.29	478.12	289.38	476.17	278.17	417.89	563.81	211.95	404.83	496.39	207.81	409.08	549.2	279.12	420.5	531.59	113.08	399.57	544.75	133.96	316.75	478.28	90.572	338.02	498.56	62.76	310.37	483.25	58.201	372.16	638.65	72.852	427.75	678.86	78.259	325.43	716.22	110.77	385.36	214.79	617.61	123.42	277.49	527.09	129.04	200.63	530.63	147.7	285.08	619.73	106.79	244.52	450.03	140.52	241.6	450.6	279.66	125.56	299.94	146.07	175.73	200.73	161.36	108.8	229.27	163.14	185.99	275.02	145.12	109.55	109.07	176.39	122.75	102.12	257.92	47.287	76.493	209.92	55.062	49.177	242.7	51.132	49.238	181.13	216.07	35.386	147.97	239.71	44.513	257.94	300.02	56.528	209.89	286.49	1400.5	269.78	196.66	1154.2	269.63
308	1.2792	456.73	1091.8	291.21	352.47	1336.4	422.29	375.18	1330.8	130.45	451.78	1610.1	278.91	411.25	934.36	385.11	420.91	915.64	175.1	201.99	969.1	330.53	196.16	974.32	257.45	349.62	823.71	478.94	282.79	838.63	89.238	307.45	974.74	442.06	298.53	970.85	112.69	173.67	923.43	288.37	450	635.3	467.91	532.82	589.65	429.7	474.43	550.09	447.13	503.76	673.01	447.19	523.06	490.78	431.52	518.42	476.35	288.64	486.46	276.29	418.01	575.61	211.9	404.88	508.21	206.3	409.13	559.58	278.83	420.54	545.74	112	399.7	557.99	133.05	316.85	492.66	87.902	338.44	513.56	60.594	310.76	498.63	55.716	372.6	653.95	74.419	427.49	693.57	80.828	325.01	730.39	114.36	384.75	218.93	617.54	123.72	281.03	526.6	129.21	204.22	530.65	148.05	289.21	619.19	106.97	247.52	449.67	140.7	244.6	450.33	279.87	127.4	300.41	146.3	176.87	200.83	161.45	110.15	229.88	163.33	187.68	275.04	145.23	109.96	109.58	176.56	123.19	102.54	258.01	47.527	77.139	210.02	55.198	49.812	242.83	51.237	49.837	181.25	216.11	35.332	147.99	239.85	44.483	257.9	300.2	56.267	209.84	292.33	1399.5	270.09	202.57	1153.2	269.79
309	1.2833	462.73	1090.5	291.51	358.32	1335.3	422.65	381.17	1329.6	130.93	457.63	1609.1	279.44	417.79	933.27	385.29	426.71	914.34	175.05	208.19	967.85	331.29	202.13	973.1	258.24	356.61	822.63	479.2	287.87	838.06	89.565	313.92	973.65	442.48	304	969.6	113.1	179.73	922.16	289.19	456.91	634.14	468	539.08	588.31	428.64	481.01	548.83	447.3	510.23	671.77	446.07	529.43	489.56	431.19	523.55	474.51	287.92	496.42	274.47	418.09	586.94	211.81	404.88	519.59	204.86	409.14	569.59	278.49	420.54	559.33	110.98	399.78	570.66	132.17	316.9	506.47	85.381	338.81	527.93	58.57	311.09	513.4	53.388	372.99	668.58	75.928	427.14	707.58	83.303	324.46	743.89	117.78	384.02	223.2	617.4	124.02	284.73	526.06	129.38	207.97	530.62	148.38	293.47	618.61	107.15	250.7	449.27	140.88	247.79	450.01	280.09	129.37	300.9	146.5	178.08	200.93	161.52	111.6	230.5	163.51	189.49	275.05	145.34	110.41	110.13	176.71	123.65	103	258.08	47.783	77.845	210.09	55.339	50.515	242.94	51.35	50.486	181.35	216.16	35.27	148.01	239.98	44.452	257.85	300.39	56.003	209.79	298.15	1398.5	270.42	208.49	1152.1	269.98
310	1.2875	468.75	1089.2	291.84	364.19	1334.2	423.04	387.14	1328.5	131.45	463.47	1608	280	424.37	932.13	385.48	432.54	913.01	175	214.43	966.57	332.08	208.14	971.87	259.07	363.64	821.46	479.45	292.99	837.46	89.916	320.44	972.5	442.92	309.49	968.32	113.51	185.83	920.88	290.03	463.85	632.94	468.09	545.36	586.91	427.61	487.61	547.52	447.48	516.73	670.48	444.98	535.79	488.28	430.89	528.69	472.61	287.22	506.04	272.68	418.13	597.8	211.65	404.83	530.52	203.45	409.1	579.24	278.08	420.5	572.33	110	399.79	582.76	131.32	316.88	519.67	83.002	339.14	541.63	56.67	311.36	527.51	51.208	373.33	682.54	77.345	426.69	720.87	85.635	323.82	756.71	120.99	383.17	227.6	617.2	124.31	288.59	525.49	129.54	211.88	530.51	148.71	297.85	617.99	107.32	254.07	448.81	141.06	251.17	449.66	280.32	131.48	301.4	146.69	179.36	201.02	161.57	113.14	231.16	163.67	191.4	275.04	145.43	110.89	110.72	176.83	124.13	103.51	258.12	48.058	78.619	210.14	55.488	51.293	243.03	51.474	51.194	181.43	216.2	35.202	148.02	240.1	44.421	257.79	300.57	55.735	209.73	303.97	1397.4	270.79	214.43	1150.9	270.22
